<svg width="24" height="24" viewBox="0 0 24 24" fill="none" xmlns="http://www.w3.org/2000/svg">
<path d="M12 1C5.92545 1 1 5.92545 1 12C1 18.0746 5.92545 23 12 23C18.0746 23 23 18.0746 23 12C23 5.92545 18.0746 1 12 1ZM12 21.1339C6.9567 21.1339 2.86607 17.0433 2.86607 12C2.86607 6.9567 6.9567 2.86607 12 2.86607C17.0433 2.86607 21.1339 6.9567 21.1339 12C21.1339 17.0433 17.0433 21.1339 12 21.1339ZM12.1375 8.05424C13.4388 8.05424 14.3228 8.88415 14.421 10.102C14.4283 10.2051 14.5143 10.2837 14.6174 10.2837H16.0096C16.0734 10.2837 16.125 10.2321 16.125 10.1683C16.125 8.03951 14.4455 6.54911 12.1301 6.54911C9.4317 6.54911 7.875 8.37098 7.875 11.3812V12.6654C7.875 15.6536 9.4317 17.4509 12.1301 17.4509C14.4382 17.4509 16.125 16.0071 16.125 13.979C16.125 13.9152 16.0734 13.8636 16.0096 13.8636H14.615C14.5118 13.8636 14.4283 13.9422 14.4185 14.0429C14.3154 15.1748 13.4339 15.9531 12.135 15.9531C10.5317 15.9531 9.62813 14.777 9.62813 12.6728V11.3812C9.63058 9.24509 10.5366 8.05424 12.1375 8.05424Z" fill="white"/>
</svg>
