<svg width="23" height="22" viewBox="0 0 23 22" fill="none" xmlns="http://www.w3.org/2000/svg">
<path d="M22.1481 10.8359L12.0744 1.18907C12.0019 1.11942 11.9158 1.06417 11.8209 1.02647C11.7261 0.988766 11.6244 0.96936 11.5217 0.96936C11.4191 0.96936 11.3174 0.988766 11.2225 1.02647C11.1277 1.06417 11.0415 1.11942 10.969 1.18907L0.895375 10.8359C0.601897 11.1172 0.435593 11.4992 0.435593 11.8977C0.435593 12.725 1.13749 13.3977 2.00081 13.3977H3.06222V20.2813C3.06222 20.6961 3.41195 21.0313 3.84483 21.0313H9.95652V15.7813H12.6956V21.0313H19.1986C19.6315 21.0313 19.9812 20.6961 19.9812 20.2813V13.3977H21.0427C21.4584 13.3977 21.8571 13.2406 22.1505 12.957C22.7595 12.3711 22.7595 11.4219 22.1481 10.8359Z" fill="black"/>
</svg>
