<svg width="18" height="17" viewBox="0 0 18 17" fill="none" xmlns="http://www.w3.org/2000/svg">
<path d="M1.43971 16.2805C1.43971 16.2805 0 16.2805 0 14.9238C0 13.5671 1.43971 9.49695 8.63824 9.49695C15.8368 9.49695 17.2765 13.5671 17.2765 14.9238C17.2765 16.2805 15.8368 16.2805 15.8368 16.2805H1.43971ZM8.63824 8.14024C9.78374 8.14024 10.8823 7.71143 11.6923 6.94813C12.5023 6.18484 12.9574 5.14959 12.9574 4.07012C12.9574 2.99066 12.5023 1.95541 11.6923 1.19211C10.8823 0.428815 9.78374 0 8.63824 0C7.49273 0 6.39415 0.428815 5.58416 1.19211C4.77417 1.95541 4.31912 2.99066 4.31912 4.07012C4.31912 5.14959 4.77417 6.18484 5.58416 6.94813C6.39415 7.71143 7.49273 8.14024 8.63824 8.14024Z" fill="white"/>
</svg>
